<?xml version="1.0" encoding="UTF-8"?>
<svg id="Layer_1" xmlns="http://www.w3.org/2000/svg" xmlns:xlink="http://www.w3.org/1999/xlink" version="1.1" viewBox="0 0 94.6 94.6">
  <!-- Generator: Adobe Illustrator 30.1.0, SVG Export Plug-In . SVG Version: 2.1.1 Build 136)  -->
  <defs>
    <style>
      .st0 {
        fill: url(#linear-gradient);
      }
    </style>
    <linearGradient id="linear-gradient" x1="6.4" y1="72.3" x2="88.4" y2="25" gradientTransform="translate(0 96) scale(1 -1)" gradientUnits="userSpaceOnUse">
      <stop offset="0" stop-color="#f2d06c"/>
      <stop offset="1" stop-color="#f2a03d"/>
    </linearGradient>
  </defs>
  <path class="st0" d="M89.5,27l-21.8-21.8C63.3.7,56.8-1,50.8.6l-29.8,8c-6,1.6-10.8,6.4-12.4,12.4L.6,50.8c-1.6,6,.1,12.5,4.5,16.9l21.8,21.8c3.3,3.3,7.8,5.1,12.4,5.1s3-.2,4.5-.6l29.8-8c6-1.6,10.8-6.4,12.4-12.4l8-29.8c1.6-6,0-12.5-4.5-16.9h0ZM6.4,52.3l8-29.8c1.1-4,4.2-7.1,8.2-8.2l29.8-8c1-.3,2-.4,3-.4,3,0,6,1.2,8.2,3.4l10.4,10.4c-6.9.7-12.8,7-15.6,16.3h-16c2.9-12,6-14.8,9.3-14.8s.6,0,1,0c.8.1,1.7.5,2.7,1.2h-.4c-1.9,0-4.1,1.9-4.6,4.3,0,.4-.2.7-.2,1.1,0,1.9,1.3,3.6,3.2,3.9h.6c2.3,0,4.2-2.3,4.3-5.1v-.2c0-3.5-2.5-6-6.2-6.6-.7-.1-1.5-.2-2.2-.2-7.4,0-14,6.4-17,16.4h-8l.3,3h6.7c-4,13-3.8,32.8-10.7,35.9l-2-2c.7-.7,1.3-1.7,1.5-2.7.1-.4.1-.7.1-1.1,0-2-1.3-3.6-3-4h-.6c-1.4,0-2.8.7-3.6,2.1l-4-4c-2.9-2.9-4.1-7.2-3-11.1l-.2.2ZM88.3,42.3l-8,29.8c-1.1,4-4.2,7.1-8.2,8.2l-29.8,8c-4,1.1-8.2,0-11.1-3l-8.1-8.1c12.1-2.7,15.1-25.5,18.4-38h15.8c-4.3,14.2-3.7,36.4-12.7,36.4s-2.2-.3-3.6-1h.4c1.9,0,4.1-1.9,4.6-4.3,0-.4,0-.7,0-1.1,0-2-1.3-3.6-3-4h-.6c-1.8,0-3.8,1.3-4.2,3.8-.2.6-.3,1.2-.3,1.8,0,4.1,4.2,6.6,8.2,6.6,14.2,0,17.3-24.9,20.9-38.3h9.1l-.3-3h-8.1c2.5-10.3,5.1-13.8,7.9-14.6l2.1,2.1c-.9.8-1.7,1.9-2,3.2,0,.4-.2.7-.2,1.1,0,1.9,1.3,3.6,3.2,3.9h.6c1.6,0,3.1-1.2,3.8-2.9l2.2,2.2c2.9,2.9,4.1,7.2,3,11.1h0Z"/>
</svg>